<mxfile host="app.diagrams.net" modified="2021-05-27T13:29:15.494Z" agent="5.0 (Windows NT 10.0; Win64; x64) AppleWebKit/537.36 (KHTML, like Gecko) Chrome/90.0.4430.212 Safari/537.36" etag="oD52mUHW_tIBCnwIOggZ" version="14.7.2" type="github">
  <diagram id="MoYYfzDykTdppg0qkuKj" name="Page-1">
    <mxGraphModel dx="2050" dy="1593" grid="1" gridSize="10" guides="1" tooltips="1" connect="1" arrows="1" fold="1" page="1" pageScale="1" pageWidth="850" pageHeight="1100" math="0" shadow="0">
      <root>
        <mxCell id="0" />
        <mxCell id="1" parent="0" />
        <mxCell id="FeKZphnsFgbxzVcXP9qo-1" value="" style="whiteSpace=wrap;html=1;aspect=fixed;fillColor=#FFFFFF;" vertex="1" parent="1">
          <mxGeometry x="90" y="130" width="150" height="150" as="geometry" />
        </mxCell>
        <mxCell id="FeKZphnsFgbxzVcXP9qo-2" value="&lt;font style=&quot;font-size: 14px&quot;&gt;convolut_image&lt;/font&gt;" style="text;html=1;strokeColor=#99FFFF;fillColor=none;align=center;verticalAlign=middle;whiteSpace=wrap;rounded=0;rotation=-90;" vertex="1" parent="1">
          <mxGeometry x="130" y="195" width="60" height="30" as="geometry" />
        </mxCell>
        <mxCell id="FeKZphnsFgbxzVcXP9qo-5" value="&lt;span style=&quot;font-size: 14px&quot;&gt;conv_avg&lt;/span&gt;" style="whiteSpace=wrap;html=1;aspect=fixed;" vertex="1" parent="1">
          <mxGeometry x="530" y="330" width="150" height="150" as="geometry" />
        </mxCell>
        <mxCell id="FeKZphnsFgbxzVcXP9qo-8" value="&lt;h1&gt;&lt;span style=&quot;font-size: 36px ; font-weight: 400 ; text-align: center&quot;&gt;Convolution layer (convolute_images):&lt;/span&gt;&lt;br&gt;&lt;/h1&gt;&lt;div&gt;&lt;span style=&quot;font-size: 36px ; font-weight: 400 ; text-align: center&quot;&gt;&lt;br&gt;&lt;/span&gt;&lt;/div&gt;" style="text;html=1;strokeColor=none;fillColor=none;spacing=5;spacingTop=-20;whiteSpace=wrap;overflow=hidden;rounded=0;" vertex="1" parent="1">
          <mxGeometry x="-290" y="-160" width="860" height="120" as="geometry" />
        </mxCell>
        <mxCell id="FeKZphnsFgbxzVcXP9qo-10" value="strat_avg" style="text;html=1;strokeColor=none;fillColor=none;align=center;verticalAlign=middle;whiteSpace=wrap;rounded=0;" vertex="1" parent="1">
          <mxGeometry x="260" y="145" width="60" height="30" as="geometry" />
        </mxCell>
        <mxCell id="FeKZphnsFgbxzVcXP9qo-16" value="" style="endArrow=classic;html=1;entryX=0.75;entryY=0;entryDx=0;entryDy=0;" edge="1" parent="1" target="FeKZphnsFgbxzVcXP9qo-1">
          <mxGeometry width="50" height="50" relative="1" as="geometry">
            <mxPoint x="203" y="40" as="sourcePoint" />
            <mxPoint x="205" y="120" as="targetPoint" />
          </mxGeometry>
        </mxCell>
        <mxCell id="FeKZphnsFgbxzVcXP9qo-18" value="&lt;font style=&quot;font-size: 14px&quot;&gt;rst&lt;/font&gt;" style="text;html=1;strokeColor=none;fillColor=none;align=center;verticalAlign=middle;whiteSpace=wrap;rounded=0;" vertex="1" parent="1">
          <mxGeometry x="90" y="80" width="50" height="20" as="geometry" />
        </mxCell>
        <mxCell id="FeKZphnsFgbxzVcXP9qo-112" value="start_signal" style="text;html=1;strokeColor=none;fillColor=none;align=center;verticalAlign=middle;whiteSpace=wrap;rounded=0;" vertex="1" parent="1">
          <mxGeometry x="220" y="90" width="40" height="20" as="geometry" />
        </mxCell>
        <mxCell id="FeKZphnsFgbxzVcXP9qo-113" value="enable" style="text;html=1;strokeColor=none;fillColor=none;align=center;verticalAlign=middle;whiteSpace=wrap;rounded=0;" vertex="1" parent="1">
          <mxGeometry x="190" y="130" width="40" height="20" as="geometry" />
        </mxCell>
        <mxCell id="FeKZphnsFgbxzVcXP9qo-114" value="Rest" style="text;html=1;strokeColor=none;fillColor=none;align=center;verticalAlign=middle;whiteSpace=wrap;rounded=0;" vertex="1" parent="1">
          <mxGeometry x="110" y="135" width="40" height="20" as="geometry" />
        </mxCell>
        <mxCell id="FeKZphnsFgbxzVcXP9qo-116" value="" style="endArrow=classic;html=1;entryX=-0.002;entryY=0.885;entryDx=0;entryDy=0;entryPerimeter=0;" edge="1" parent="1" target="FeKZphnsFgbxzVcXP9qo-1">
          <mxGeometry width="50" height="50" relative="1" as="geometry">
            <mxPoint x="-29" y="263" as="sourcePoint" />
            <mxPoint x="70" y="261" as="targetPoint" />
          </mxGeometry>
        </mxCell>
        <mxCell id="FeKZphnsFgbxzVcXP9qo-117" value="CLK" style="text;html=1;strokeColor=none;fillColor=none;align=center;verticalAlign=middle;whiteSpace=wrap;rounded=0;" vertex="1" parent="1">
          <mxGeometry x="30" y="240" width="40" height="20" as="geometry" />
        </mxCell>
        <mxCell id="FeKZphnsFgbxzVcXP9qo-119" value="CLK" style="text;html=1;strokeColor=none;fillColor=none;align=center;verticalAlign=middle;whiteSpace=wrap;rounded=0;" vertex="1" parent="1">
          <mxGeometry x="110" y="250" width="40" height="20" as="geometry" />
        </mxCell>
        <mxCell id="FeKZphnsFgbxzVcXP9qo-121" value="" style="shape=flexArrow;endArrow=classic;html=1;entryX=-0.009;entryY=0.636;entryDx=0;entryDy=0;entryPerimeter=0;" edge="1" parent="1" target="FeKZphnsFgbxzVcXP9qo-1">
          <mxGeometry width="50" height="50" relative="1" as="geometry">
            <mxPoint x="-40" y="225" as="sourcePoint" />
            <mxPoint x="40" y="190" as="targetPoint" />
          </mxGeometry>
        </mxCell>
        <mxCell id="FeKZphnsFgbxzVcXP9qo-123" value="" style="shape=flexArrow;endArrow=classic;html=1;entryX=0;entryY=0.5;entryDx=0;entryDy=0;endWidth=19;endSize=6.78;width=19;" edge="1" parent="1" target="FeKZphnsFgbxzVcXP9qo-132">
          <mxGeometry width="50" height="50" relative="1" as="geometry">
            <mxPoint x="-40" y="170" as="sourcePoint" />
            <mxPoint x="60" y="140" as="targetPoint" />
            <Array as="points">
              <mxPoint x="40" y="170" />
            </Array>
          </mxGeometry>
        </mxCell>
        <mxCell id="FeKZphnsFgbxzVcXP9qo-124" value="&lt;h1 style=&quot;text-align: left&quot;&gt;&lt;span style=&quot;font-weight: normal&quot;&gt;&lt;font style=&quot;font-size: 12px&quot;&gt;IMGs (25*16-1 to 0)&lt;/font&gt;&lt;/span&gt;&lt;/h1&gt;" style="text;html=1;align=center;verticalAlign=middle;resizable=0;points=[];autosize=1;strokeColor=none;" vertex="1" parent="1">
          <mxGeometry x="-45" y="115" width="120" height="60" as="geometry" />
        </mxCell>
        <mxCell id="FeKZphnsFgbxzVcXP9qo-126" value="&lt;h1 style=&quot;text-align: left&quot;&gt;&lt;span style=&quot;font-weight: normal&quot;&gt;&lt;font style=&quot;font-size: 12px&quot;&gt;FILTERs(9*16-1 to 0)&amp;nbsp;&lt;/font&gt;&lt;/span&gt;&lt;/h1&gt;" style="text;html=1;align=center;verticalAlign=middle;resizable=0;points=[];autosize=1;strokeColor=none;" vertex="1" parent="1">
          <mxGeometry x="-50" y="175" width="130" height="60" as="geometry" />
        </mxCell>
        <mxCell id="FeKZphnsFgbxzVcXP9qo-129" value="&lt;h1&gt;&lt;span style=&quot;font-weight: normal&quot;&gt;&lt;font style=&quot;font-size: 12px&quot;&gt;convoluted_img&amp;nbsp;&lt;/font&gt;&lt;/span&gt;&lt;span style=&quot;font-weight: normal&quot;&gt;&lt;font style=&quot;font-size: 12px&quot;&gt;(9*16-1 to 0)&amp;nbsp;&lt;/font&gt;&lt;/span&gt;&lt;/h1&gt;" style="text;html=1;strokeColor=none;fillColor=none;align=left;verticalAlign=middle;whiteSpace=wrap;rounded=0;" vertex="1" parent="1">
          <mxGeometry x="240" y="205" width="180" height="20" as="geometry" />
        </mxCell>
        <mxCell id="FeKZphnsFgbxzVcXP9qo-131" value="B1" style="text;html=1;align=center;verticalAlign=middle;resizable=0;points=[];autosize=1;strokeColor=none;" vertex="1" parent="1">
          <mxGeometry x="370" y="240" width="30" height="20" as="geometry" />
        </mxCell>
        <mxCell id="FeKZphnsFgbxzVcXP9qo-132" value="img" style="text;html=1;strokeColor=none;fillColor=none;align=center;verticalAlign=middle;whiteSpace=wrap;rounded=0;" vertex="1" parent="1">
          <mxGeometry x="90" y="160" width="40" height="20" as="geometry" />
        </mxCell>
        <mxCell id="FeKZphnsFgbxzVcXP9qo-133" value="filter" style="text;html=1;strokeColor=none;fillColor=none;align=center;verticalAlign=middle;whiteSpace=wrap;rounded=0;" vertex="1" parent="1">
          <mxGeometry x="90" y="215" width="40" height="20" as="geometry" />
        </mxCell>
        <mxCell id="FeKZphnsFgbxzVcXP9qo-134" value="conv_img" style="text;html=1;strokeColor=none;fillColor=none;align=center;verticalAlign=middle;whiteSpace=wrap;rounded=0;" vertex="1" parent="1">
          <mxGeometry x="190" y="230" width="40" height="20" as="geometry" />
        </mxCell>
        <mxCell id="FeKZphnsFgbxzVcXP9qo-139" value="" style="shape=flexArrow;endArrow=classic;html=1;exitX=1;exitY=0.75;exitDx=0;exitDy=0;" edge="1" parent="1" source="FeKZphnsFgbxzVcXP9qo-1">
          <mxGeometry width="50" height="50" relative="1" as="geometry">
            <mxPoint x="270" y="260" as="sourcePoint" />
            <mxPoint x="370" y="243" as="targetPoint" />
          </mxGeometry>
        </mxCell>
        <mxCell id="FeKZphnsFgbxzVcXP9qo-146" value="" style="endArrow=classic;html=1;entryX=0.25;entryY=0;entryDx=0;entryDy=0;" edge="1" parent="1" target="FeKZphnsFgbxzVcXP9qo-1">
          <mxGeometry width="50" height="50" relative="1" as="geometry">
            <mxPoint x="128" y="40" as="sourcePoint" />
            <mxPoint x="140" y="30" as="targetPoint" />
          </mxGeometry>
        </mxCell>
        <mxCell id="FeKZphnsFgbxzVcXP9qo-150" value="end" style="text;html=1;strokeColor=none;fillColor=none;align=center;verticalAlign=middle;whiteSpace=wrap;rounded=0;" vertex="1" parent="1">
          <mxGeometry x="200" y="155" width="40" height="20" as="geometry" />
        </mxCell>
        <mxCell id="FeKZphnsFgbxzVcXP9qo-151" value="" style="endArrow=classic;html=1;entryX=0.318;entryY=0.003;entryDx=0;entryDy=0;entryPerimeter=0;" edge="1" parent="1" target="FeKZphnsFgbxzVcXP9qo-5">
          <mxGeometry width="50" height="50" relative="1" as="geometry">
            <mxPoint x="578" y="280" as="sourcePoint" />
            <mxPoint x="590" y="245" as="targetPoint" />
          </mxGeometry>
        </mxCell>
        <mxCell id="FeKZphnsFgbxzVcXP9qo-154" value="&lt;font style=&quot;font-size: 14px&quot;&gt;rst&lt;/font&gt;" style="text;html=1;strokeColor=none;fillColor=none;align=center;verticalAlign=middle;whiteSpace=wrap;rounded=0;" vertex="1" parent="1">
          <mxGeometry x="540" y="300" width="50" height="20" as="geometry" />
        </mxCell>
        <mxCell id="FeKZphnsFgbxzVcXP9qo-155" value="enable" style="text;html=1;strokeColor=none;fillColor=none;align=center;verticalAlign=middle;whiteSpace=wrap;rounded=0;" vertex="1" parent="1">
          <mxGeometry x="630" y="335" width="40" height="20" as="geometry" />
        </mxCell>
        <mxCell id="FeKZphnsFgbxzVcXP9qo-156" value="Rest" style="text;html=1;strokeColor=none;fillColor=none;align=center;verticalAlign=middle;whiteSpace=wrap;rounded=0;" vertex="1" parent="1">
          <mxGeometry x="560" y="335" width="40" height="20" as="geometry" />
        </mxCell>
        <mxCell id="FeKZphnsFgbxzVcXP9qo-157" value="" style="whiteSpace=wrap;html=1;aspect=fixed;fillColor=#FFFFFF;" vertex="1" parent="1">
          <mxGeometry x="100" y="490" width="150" height="150" as="geometry" />
        </mxCell>
        <mxCell id="FeKZphnsFgbxzVcXP9qo-158" value="&lt;font style=&quot;font-size: 14px&quot;&gt;convolut_image&lt;/font&gt;" style="text;html=1;strokeColor=#99FFFF;fillColor=none;align=center;verticalAlign=middle;whiteSpace=wrap;rounded=0;rotation=-90;" vertex="1" parent="1">
          <mxGeometry x="140" y="555" width="60" height="30" as="geometry" />
        </mxCell>
        <mxCell id="FeKZphnsFgbxzVcXP9qo-159" value="strat_avg" style="text;html=1;strokeColor=none;fillColor=none;align=center;verticalAlign=middle;whiteSpace=wrap;rounded=0;" vertex="1" parent="1">
          <mxGeometry x="257.5" y="505" width="60" height="30" as="geometry" />
        </mxCell>
        <mxCell id="FeKZphnsFgbxzVcXP9qo-160" value="" style="endArrow=classic;html=1;entryX=0.75;entryY=0;entryDx=0;entryDy=0;" edge="1" parent="1" target="FeKZphnsFgbxzVcXP9qo-157">
          <mxGeometry width="50" height="50" relative="1" as="geometry">
            <mxPoint x="213" y="400" as="sourcePoint" />
            <mxPoint x="215" y="480" as="targetPoint" />
          </mxGeometry>
        </mxCell>
        <mxCell id="FeKZphnsFgbxzVcXP9qo-161" value="&lt;font style=&quot;font-size: 14px&quot;&gt;rst&lt;/font&gt;" style="text;html=1;strokeColor=none;fillColor=none;align=center;verticalAlign=middle;whiteSpace=wrap;rounded=0;" vertex="1" parent="1">
          <mxGeometry x="100" y="440" width="50" height="20" as="geometry" />
        </mxCell>
        <mxCell id="FeKZphnsFgbxzVcXP9qo-162" value="start_signal" style="text;html=1;strokeColor=none;fillColor=none;align=center;verticalAlign=middle;whiteSpace=wrap;rounded=0;" vertex="1" parent="1">
          <mxGeometry x="230" y="450" width="40" height="20" as="geometry" />
        </mxCell>
        <mxCell id="FeKZphnsFgbxzVcXP9qo-163" value="enable" style="text;html=1;strokeColor=none;fillColor=none;align=center;verticalAlign=middle;whiteSpace=wrap;rounded=0;" vertex="1" parent="1">
          <mxGeometry x="200" y="490" width="40" height="20" as="geometry" />
        </mxCell>
        <mxCell id="FeKZphnsFgbxzVcXP9qo-164" value="Rest" style="text;html=1;strokeColor=none;fillColor=none;align=center;verticalAlign=middle;whiteSpace=wrap;rounded=0;" vertex="1" parent="1">
          <mxGeometry x="120" y="495" width="40" height="20" as="geometry" />
        </mxCell>
        <mxCell id="FeKZphnsFgbxzVcXP9qo-165" value="" style="endArrow=classic;html=1;entryX=-0.002;entryY=0.885;entryDx=0;entryDy=0;entryPerimeter=0;" edge="1" parent="1" target="FeKZphnsFgbxzVcXP9qo-157">
          <mxGeometry width="50" height="50" relative="1" as="geometry">
            <mxPoint x="-19" y="623" as="sourcePoint" />
            <mxPoint x="80" y="621" as="targetPoint" />
          </mxGeometry>
        </mxCell>
        <mxCell id="FeKZphnsFgbxzVcXP9qo-166" value="CLK" style="text;html=1;strokeColor=none;fillColor=none;align=center;verticalAlign=middle;whiteSpace=wrap;rounded=0;" vertex="1" parent="1">
          <mxGeometry x="40" y="600" width="40" height="20" as="geometry" />
        </mxCell>
        <mxCell id="FeKZphnsFgbxzVcXP9qo-167" value="CLK" style="text;html=1;strokeColor=none;fillColor=none;align=center;verticalAlign=middle;whiteSpace=wrap;rounded=0;" vertex="1" parent="1">
          <mxGeometry x="120" y="610" width="40" height="20" as="geometry" />
        </mxCell>
        <mxCell id="FeKZphnsFgbxzVcXP9qo-168" value="" style="shape=flexArrow;endArrow=classic;html=1;entryX=-0.009;entryY=0.636;entryDx=0;entryDy=0;entryPerimeter=0;" edge="1" parent="1" target="FeKZphnsFgbxzVcXP9qo-157">
          <mxGeometry width="50" height="50" relative="1" as="geometry">
            <mxPoint x="-30" y="585" as="sourcePoint" />
            <mxPoint x="50" y="550" as="targetPoint" />
          </mxGeometry>
        </mxCell>
        <mxCell id="FeKZphnsFgbxzVcXP9qo-169" value="" style="shape=flexArrow;endArrow=classic;html=1;entryX=0;entryY=0.5;entryDx=0;entryDy=0;endWidth=19;endSize=6.78;width=19;" edge="1" parent="1" target="FeKZphnsFgbxzVcXP9qo-174">
          <mxGeometry width="50" height="50" relative="1" as="geometry">
            <mxPoint x="-30" y="530" as="sourcePoint" />
            <mxPoint x="70" y="500" as="targetPoint" />
            <Array as="points">
              <mxPoint x="50" y="530" />
            </Array>
          </mxGeometry>
        </mxCell>
        <mxCell id="FeKZphnsFgbxzVcXP9qo-170" value="&lt;h1 style=&quot;text-align: left&quot;&gt;&lt;span style=&quot;font-weight: normal&quot;&gt;&lt;font style=&quot;font-size: 12px&quot;&gt;IMGs (25*16*2-1 to&amp;nbsp;&lt;/font&gt;&lt;/span&gt;&lt;span style=&quot;font-weight: normal&quot;&gt;&lt;font style=&quot;font-size: 12px&quot;&gt;25*16)&lt;/font&gt;&lt;/span&gt;&lt;/h1&gt;" style="text;html=1;align=center;verticalAlign=middle;resizable=0;points=[];autosize=1;strokeColor=none;" vertex="1" parent="1">
          <mxGeometry x="-75" y="475" width="160" height="60" as="geometry" />
        </mxCell>
        <mxCell id="FeKZphnsFgbxzVcXP9qo-171" value="&lt;h1 style=&quot;text-align: left&quot;&gt;&lt;span style=&quot;font-weight: normal&quot;&gt;&lt;font style=&quot;font-size: 12px&quot;&gt;FILTERs(9*16*2-1 to *16)&amp;nbsp;&lt;/font&gt;&lt;/span&gt;&lt;/h1&gt;" style="text;html=1;align=center;verticalAlign=middle;resizable=0;points=[];autosize=1;strokeColor=none;" vertex="1" parent="1">
          <mxGeometry x="-65" y="535" width="150" height="60" as="geometry" />
        </mxCell>
        <mxCell id="FeKZphnsFgbxzVcXP9qo-172" value="avg_imgs&lt;span&gt;(9*16-1 to 0)&amp;nbsp;&lt;/span&gt;" style="text;html=1;strokeColor=none;fillColor=none;align=left;verticalAlign=middle;whiteSpace=wrap;rounded=0;" vertex="1" parent="1">
          <mxGeometry x="680" y="405" width="130" height="20" as="geometry" />
        </mxCell>
        <mxCell id="FeKZphnsFgbxzVcXP9qo-174" value="img" style="text;html=1;strokeColor=none;fillColor=none;align=center;verticalAlign=middle;whiteSpace=wrap;rounded=0;" vertex="1" parent="1">
          <mxGeometry x="100" y="520" width="40" height="20" as="geometry" />
        </mxCell>
        <mxCell id="FeKZphnsFgbxzVcXP9qo-175" value="filter" style="text;html=1;strokeColor=none;fillColor=none;align=center;verticalAlign=middle;whiteSpace=wrap;rounded=0;" vertex="1" parent="1">
          <mxGeometry x="100" y="575" width="40" height="20" as="geometry" />
        </mxCell>
        <mxCell id="FeKZphnsFgbxzVcXP9qo-176" value="conv_img" style="text;html=1;strokeColor=none;fillColor=none;align=center;verticalAlign=middle;whiteSpace=wrap;rounded=0;" vertex="1" parent="1">
          <mxGeometry x="200" y="590" width="40" height="20" as="geometry" />
        </mxCell>
        <mxCell id="FeKZphnsFgbxzVcXP9qo-177" value="" style="shape=flexArrow;endArrow=classic;html=1;" edge="1" parent="1">
          <mxGeometry width="50" height="50" relative="1" as="geometry">
            <mxPoint x="680" y="440" as="sourcePoint" />
            <mxPoint x="820" y="440" as="targetPoint" />
          </mxGeometry>
        </mxCell>
        <mxCell id="FeKZphnsFgbxzVcXP9qo-178" value="" style="endArrow=classic;html=1;entryX=0.25;entryY=0;entryDx=0;entryDy=0;" edge="1" parent="1" target="FeKZphnsFgbxzVcXP9qo-157">
          <mxGeometry width="50" height="50" relative="1" as="geometry">
            <mxPoint x="138" y="400" as="sourcePoint" />
            <mxPoint x="150" y="390" as="targetPoint" />
          </mxGeometry>
        </mxCell>
        <mxCell id="FeKZphnsFgbxzVcXP9qo-179" value="end" style="text;html=1;strokeColor=none;fillColor=none;align=center;verticalAlign=middle;whiteSpace=wrap;rounded=0;" vertex="1" parent="1">
          <mxGeometry x="197.5" y="515" width="40" height="20" as="geometry" />
        </mxCell>
        <mxCell id="FeKZphnsFgbxzVcXP9qo-205" value="" style="whiteSpace=wrap;html=1;aspect=fixed;fillColor=#FFFFFF;" vertex="1" parent="1">
          <mxGeometry x="87.5" y="1115" width="150" height="150" as="geometry" />
        </mxCell>
        <mxCell id="FeKZphnsFgbxzVcXP9qo-206" value="&lt;font style=&quot;font-size: 14px&quot;&gt;convolut_image&lt;/font&gt;" style="text;html=1;strokeColor=#99FFFF;fillColor=none;align=center;verticalAlign=middle;whiteSpace=wrap;rounded=0;rotation=-90;" vertex="1" parent="1">
          <mxGeometry x="127.5" y="1180" width="60" height="30" as="geometry" />
        </mxCell>
        <mxCell id="FeKZphnsFgbxzVcXP9qo-207" value="strat_avg" style="text;html=1;strokeColor=none;fillColor=none;align=center;verticalAlign=middle;whiteSpace=wrap;rounded=0;" vertex="1" parent="1">
          <mxGeometry x="240" y="1120" width="60" height="30" as="geometry" />
        </mxCell>
        <mxCell id="FeKZphnsFgbxzVcXP9qo-208" value="" style="endArrow=classic;html=1;entryX=0.75;entryY=0;entryDx=0;entryDy=0;" edge="1" parent="1" target="FeKZphnsFgbxzVcXP9qo-205">
          <mxGeometry width="50" height="50" relative="1" as="geometry">
            <mxPoint x="200.5" y="1025" as="sourcePoint" />
            <mxPoint x="202.5" y="1105" as="targetPoint" />
          </mxGeometry>
        </mxCell>
        <mxCell id="FeKZphnsFgbxzVcXP9qo-209" value="&lt;font style=&quot;font-size: 14px&quot;&gt;rst&lt;/font&gt;" style="text;html=1;strokeColor=none;fillColor=none;align=center;verticalAlign=middle;whiteSpace=wrap;rounded=0;" vertex="1" parent="1">
          <mxGeometry x="87.5" y="1065" width="50" height="20" as="geometry" />
        </mxCell>
        <mxCell id="FeKZphnsFgbxzVcXP9qo-210" value="start_signal" style="text;html=1;strokeColor=none;fillColor=none;align=center;verticalAlign=middle;whiteSpace=wrap;rounded=0;" vertex="1" parent="1">
          <mxGeometry x="217.5" y="1075" width="40" height="20" as="geometry" />
        </mxCell>
        <mxCell id="FeKZphnsFgbxzVcXP9qo-211" value="enable" style="text;html=1;strokeColor=none;fillColor=none;align=center;verticalAlign=middle;whiteSpace=wrap;rounded=0;" vertex="1" parent="1">
          <mxGeometry x="187.5" y="1115" width="40" height="20" as="geometry" />
        </mxCell>
        <mxCell id="FeKZphnsFgbxzVcXP9qo-212" value="Rest" style="text;html=1;strokeColor=none;fillColor=none;align=center;verticalAlign=middle;whiteSpace=wrap;rounded=0;" vertex="1" parent="1">
          <mxGeometry x="107.5" y="1120" width="40" height="20" as="geometry" />
        </mxCell>
        <mxCell id="FeKZphnsFgbxzVcXP9qo-213" value="" style="endArrow=classic;html=1;entryX=-0.002;entryY=0.885;entryDx=0;entryDy=0;entryPerimeter=0;" edge="1" parent="1" target="FeKZphnsFgbxzVcXP9qo-205">
          <mxGeometry width="50" height="50" relative="1" as="geometry">
            <mxPoint x="-31.5" y="1248" as="sourcePoint" />
            <mxPoint x="67.5" y="1246" as="targetPoint" />
          </mxGeometry>
        </mxCell>
        <mxCell id="FeKZphnsFgbxzVcXP9qo-214" value="CLK" style="text;html=1;strokeColor=none;fillColor=none;align=center;verticalAlign=middle;whiteSpace=wrap;rounded=0;" vertex="1" parent="1">
          <mxGeometry x="27.5" y="1225" width="40" height="20" as="geometry" />
        </mxCell>
        <mxCell id="FeKZphnsFgbxzVcXP9qo-215" value="CLK" style="text;html=1;strokeColor=none;fillColor=none;align=center;verticalAlign=middle;whiteSpace=wrap;rounded=0;" vertex="1" parent="1">
          <mxGeometry x="107.5" y="1235" width="40" height="20" as="geometry" />
        </mxCell>
        <mxCell id="FeKZphnsFgbxzVcXP9qo-216" value="" style="shape=flexArrow;endArrow=classic;html=1;entryX=-0.009;entryY=0.636;entryDx=0;entryDy=0;entryPerimeter=0;" edge="1" parent="1" target="FeKZphnsFgbxzVcXP9qo-205">
          <mxGeometry width="50" height="50" relative="1" as="geometry">
            <mxPoint x="-42.5" y="1210" as="sourcePoint" />
            <mxPoint x="37.5" y="1175" as="targetPoint" />
          </mxGeometry>
        </mxCell>
        <mxCell id="FeKZphnsFgbxzVcXP9qo-217" value="" style="shape=flexArrow;endArrow=classic;html=1;entryX=0;entryY=0.5;entryDx=0;entryDy=0;endWidth=19;endSize=6.78;width=19;" edge="1" parent="1" target="FeKZphnsFgbxzVcXP9qo-222">
          <mxGeometry width="50" height="50" relative="1" as="geometry">
            <mxPoint x="-42.5" y="1155" as="sourcePoint" />
            <mxPoint x="57.5" y="1125" as="targetPoint" />
            <Array as="points">
              <mxPoint x="37.5" y="1155" />
            </Array>
          </mxGeometry>
        </mxCell>
        <mxCell id="FeKZphnsFgbxzVcXP9qo-218" value="&lt;h1 style=&quot;text-align: left&quot;&gt;&lt;span style=&quot;font-weight: normal&quot;&gt;&lt;font style=&quot;font-size: 12px&quot;&gt;IMGs (25*16*2-1 to&amp;nbsp;&lt;/font&gt;&lt;/span&gt;&lt;span style=&quot;font-weight: normal&quot;&gt;&lt;font style=&quot;font-size: 12px&quot;&gt;25*16)&lt;/font&gt;&lt;/span&gt;&lt;/h1&gt;" style="text;html=1;align=center;verticalAlign=middle;resizable=0;points=[];autosize=1;strokeColor=none;" vertex="1" parent="1">
          <mxGeometry x="-87.5" y="1100" width="160" height="60" as="geometry" />
        </mxCell>
        <mxCell id="FeKZphnsFgbxzVcXP9qo-219" value="&lt;h1 style=&quot;text-align: left&quot;&gt;&lt;span style=&quot;font-weight: normal&quot;&gt;&lt;font style=&quot;font-size: 12px&quot;&gt;FILTERs(9*16*2-1 to *16)&amp;nbsp;&lt;/font&gt;&lt;/span&gt;&lt;/h1&gt;" style="text;html=1;align=center;verticalAlign=middle;resizable=0;points=[];autosize=1;strokeColor=none;" vertex="1" parent="1">
          <mxGeometry x="-77.5" y="1160" width="150" height="60" as="geometry" />
        </mxCell>
        <mxCell id="FeKZphnsFgbxzVcXP9qo-220" value="&lt;h1&gt;&lt;span style=&quot;font-weight: normal&quot;&gt;&lt;font style=&quot;font-size: 12px&quot;&gt;convoluted_img&amp;nbsp;&lt;/font&gt;&lt;/span&gt;&lt;span style=&quot;font-weight: normal&quot;&gt;&lt;font style=&quot;font-size: 12px&quot;&gt;(9*16*4-1 to 3*9*16)&amp;nbsp;&lt;/font&gt;&lt;/span&gt;&lt;/h1&gt;" style="text;html=1;strokeColor=none;fillColor=none;align=left;verticalAlign=middle;whiteSpace=wrap;rounded=0;" vertex="1" parent="1">
          <mxGeometry x="250" y="1190" width="210" height="20" as="geometry" />
        </mxCell>
        <mxCell id="FeKZphnsFgbxzVcXP9qo-222" value="img" style="text;html=1;strokeColor=none;fillColor=none;align=center;verticalAlign=middle;whiteSpace=wrap;rounded=0;" vertex="1" parent="1">
          <mxGeometry x="87.5" y="1145" width="40" height="20" as="geometry" />
        </mxCell>
        <mxCell id="FeKZphnsFgbxzVcXP9qo-223" value="filter" style="text;html=1;strokeColor=none;fillColor=none;align=center;verticalAlign=middle;whiteSpace=wrap;rounded=0;" vertex="1" parent="1">
          <mxGeometry x="87.5" y="1200" width="40" height="20" as="geometry" />
        </mxCell>
        <mxCell id="FeKZphnsFgbxzVcXP9qo-224" value="conv_img" style="text;html=1;strokeColor=none;fillColor=none;align=center;verticalAlign=middle;whiteSpace=wrap;rounded=0;" vertex="1" parent="1">
          <mxGeometry x="187.5" y="1215" width="40" height="20" as="geometry" />
        </mxCell>
        <mxCell id="FeKZphnsFgbxzVcXP9qo-225" value="" style="shape=flexArrow;endArrow=classic;html=1;exitX=1;exitY=0.75;exitDx=0;exitDy=0;endWidth=13;endSize=6.13;width=19;" edge="1" parent="1" source="FeKZphnsFgbxzVcXP9qo-205">
          <mxGeometry width="50" height="50" relative="1" as="geometry">
            <mxPoint x="267.5" y="1245" as="sourcePoint" />
            <mxPoint x="430" y="1077" as="targetPoint" />
            <Array as="points">
              <mxPoint x="320" y="1228" />
              <mxPoint x="320" y="1077" />
            </Array>
          </mxGeometry>
        </mxCell>
        <mxCell id="FeKZphnsFgbxzVcXP9qo-226" value="" style="endArrow=classic;html=1;entryX=0.25;entryY=0;entryDx=0;entryDy=0;" edge="1" parent="1" target="FeKZphnsFgbxzVcXP9qo-205">
          <mxGeometry width="50" height="50" relative="1" as="geometry">
            <mxPoint x="125.5" y="1025" as="sourcePoint" />
            <mxPoint x="137.5" y="1015" as="targetPoint" />
          </mxGeometry>
        </mxCell>
        <mxCell id="FeKZphnsFgbxzVcXP9qo-227" value="end" style="text;html=1;strokeColor=none;fillColor=none;align=center;verticalAlign=middle;whiteSpace=wrap;rounded=0;" vertex="1" parent="1">
          <mxGeometry x="197.5" y="1140" width="40" height="20" as="geometry" />
        </mxCell>
        <mxCell id="FeKZphnsFgbxzVcXP9qo-228" value="" style="whiteSpace=wrap;html=1;aspect=fixed;fillColor=#FFFFFF;" vertex="1" parent="1">
          <mxGeometry x="90" y="765" width="150" height="150" as="geometry" />
        </mxCell>
        <mxCell id="FeKZphnsFgbxzVcXP9qo-229" value="&lt;font style=&quot;font-size: 14px&quot;&gt;convolut_image&lt;/font&gt;" style="text;html=1;strokeColor=#99FFFF;fillColor=none;align=center;verticalAlign=middle;whiteSpace=wrap;rounded=0;rotation=-90;" vertex="1" parent="1">
          <mxGeometry x="127.5" y="830" width="60" height="30" as="geometry" />
        </mxCell>
        <mxCell id="FeKZphnsFgbxzVcXP9qo-230" value="strat_avg" style="text;html=1;strokeColor=none;fillColor=none;align=center;verticalAlign=middle;whiteSpace=wrap;rounded=0;" vertex="1" parent="1">
          <mxGeometry x="257.5" y="780" width="60" height="30" as="geometry" />
        </mxCell>
        <mxCell id="FeKZphnsFgbxzVcXP9qo-231" value="" style="endArrow=classic;html=1;entryX=0.75;entryY=0;entryDx=0;entryDy=0;" edge="1" parent="1" target="FeKZphnsFgbxzVcXP9qo-228">
          <mxGeometry width="50" height="50" relative="1" as="geometry">
            <mxPoint x="200.5" y="675" as="sourcePoint" />
            <mxPoint x="202.5" y="755" as="targetPoint" />
          </mxGeometry>
        </mxCell>
        <mxCell id="FeKZphnsFgbxzVcXP9qo-232" value="&lt;font style=&quot;font-size: 14px&quot;&gt;rst&lt;/font&gt;" style="text;html=1;strokeColor=none;fillColor=none;align=center;verticalAlign=middle;whiteSpace=wrap;rounded=0;" vertex="1" parent="1">
          <mxGeometry x="87.5" y="715" width="50" height="20" as="geometry" />
        </mxCell>
        <mxCell id="FeKZphnsFgbxzVcXP9qo-233" value="start_signal" style="text;html=1;strokeColor=none;fillColor=none;align=center;verticalAlign=middle;whiteSpace=wrap;rounded=0;" vertex="1" parent="1">
          <mxGeometry x="217.5" y="725" width="40" height="20" as="geometry" />
        </mxCell>
        <mxCell id="FeKZphnsFgbxzVcXP9qo-234" value="enable" style="text;html=1;strokeColor=none;fillColor=none;align=center;verticalAlign=middle;whiteSpace=wrap;rounded=0;" vertex="1" parent="1">
          <mxGeometry x="187.5" y="765" width="40" height="20" as="geometry" />
        </mxCell>
        <mxCell id="FeKZphnsFgbxzVcXP9qo-235" value="Rest" style="text;html=1;strokeColor=none;fillColor=none;align=center;verticalAlign=middle;whiteSpace=wrap;rounded=0;" vertex="1" parent="1">
          <mxGeometry x="107.5" y="770" width="40" height="20" as="geometry" />
        </mxCell>
        <mxCell id="FeKZphnsFgbxzVcXP9qo-236" value="" style="endArrow=classic;html=1;entryX=-0.002;entryY=0.885;entryDx=0;entryDy=0;entryPerimeter=0;" edge="1" parent="1" target="FeKZphnsFgbxzVcXP9qo-228">
          <mxGeometry width="50" height="50" relative="1" as="geometry">
            <mxPoint x="-31.5" y="898" as="sourcePoint" />
            <mxPoint x="67.5" y="896" as="targetPoint" />
          </mxGeometry>
        </mxCell>
        <mxCell id="FeKZphnsFgbxzVcXP9qo-237" value="CLK" style="text;html=1;strokeColor=none;fillColor=none;align=center;verticalAlign=middle;whiteSpace=wrap;rounded=0;" vertex="1" parent="1">
          <mxGeometry x="27.5" y="875" width="40" height="20" as="geometry" />
        </mxCell>
        <mxCell id="FeKZphnsFgbxzVcXP9qo-238" value="CLK" style="text;html=1;strokeColor=none;fillColor=none;align=center;verticalAlign=middle;whiteSpace=wrap;rounded=0;" vertex="1" parent="1">
          <mxGeometry x="107.5" y="885" width="40" height="20" as="geometry" />
        </mxCell>
        <mxCell id="FeKZphnsFgbxzVcXP9qo-239" value="" style="shape=flexArrow;endArrow=classic;html=1;entryX=-0.009;entryY=0.636;entryDx=0;entryDy=0;entryPerimeter=0;" edge="1" parent="1" target="FeKZphnsFgbxzVcXP9qo-228">
          <mxGeometry width="50" height="50" relative="1" as="geometry">
            <mxPoint x="-42.5" y="860" as="sourcePoint" />
            <mxPoint x="37.5" y="825" as="targetPoint" />
          </mxGeometry>
        </mxCell>
        <mxCell id="FeKZphnsFgbxzVcXP9qo-240" value="" style="shape=flexArrow;endArrow=classic;html=1;entryX=0;entryY=0.5;entryDx=0;entryDy=0;endWidth=19;endSize=6.78;width=19;" edge="1" parent="1" target="FeKZphnsFgbxzVcXP9qo-245">
          <mxGeometry width="50" height="50" relative="1" as="geometry">
            <mxPoint x="-42.5" y="805" as="sourcePoint" />
            <mxPoint x="57.5" y="775" as="targetPoint" />
            <Array as="points">
              <mxPoint x="37.5" y="805" />
            </Array>
          </mxGeometry>
        </mxCell>
        <mxCell id="FeKZphnsFgbxzVcXP9qo-241" value="&lt;h1 style=&quot;text-align: left&quot;&gt;&lt;span style=&quot;font-weight: normal&quot;&gt;&lt;font style=&quot;font-size: 12px&quot;&gt;IMGs (25*16*2-1 to&amp;nbsp;&lt;/font&gt;&lt;/span&gt;&lt;span style=&quot;font-weight: normal&quot;&gt;&lt;font style=&quot;font-size: 12px&quot;&gt;25*16)&lt;/font&gt;&lt;/span&gt;&lt;/h1&gt;" style="text;html=1;align=center;verticalAlign=middle;resizable=0;points=[];autosize=1;strokeColor=none;" vertex="1" parent="1">
          <mxGeometry x="-87.5" y="750" width="160" height="60" as="geometry" />
        </mxCell>
        <mxCell id="FeKZphnsFgbxzVcXP9qo-242" value="&lt;h1 style=&quot;text-align: left&quot;&gt;&lt;span style=&quot;font-weight: normal&quot;&gt;&lt;font style=&quot;font-size: 12px&quot;&gt;FILTERs(9*16*2-1 to *16)&amp;nbsp;&lt;/font&gt;&lt;/span&gt;&lt;/h1&gt;" style="text;html=1;align=center;verticalAlign=middle;resizable=0;points=[];autosize=1;strokeColor=none;" vertex="1" parent="1">
          <mxGeometry x="-77.5" y="810" width="150" height="60" as="geometry" />
        </mxCell>
        <mxCell id="FeKZphnsFgbxzVcXP9qo-243" value="&lt;h1&gt;&lt;span style=&quot;font-weight: normal&quot;&gt;&lt;font style=&quot;font-size: 12px&quot;&gt;convoluted_img&amp;nbsp;&lt;/font&gt;&lt;/span&gt;&lt;span style=&quot;font-weight: normal&quot;&gt;&lt;font style=&quot;font-size: 12px&quot;&gt;(9*16*2-1 to 9*16)&amp;nbsp;&lt;/font&gt;&lt;/span&gt;&lt;/h1&gt;" style="text;html=1;strokeColor=none;fillColor=none;align=left;verticalAlign=middle;whiteSpace=wrap;rounded=0;" vertex="1" parent="1">
          <mxGeometry x="240" y="840" width="210" height="20" as="geometry" />
        </mxCell>
        <mxCell id="FeKZphnsFgbxzVcXP9qo-245" value="img" style="text;html=1;strokeColor=none;fillColor=none;align=center;verticalAlign=middle;whiteSpace=wrap;rounded=0;" vertex="1" parent="1">
          <mxGeometry x="87.5" y="795" width="40" height="20" as="geometry" />
        </mxCell>
        <mxCell id="FeKZphnsFgbxzVcXP9qo-246" value="filter" style="text;html=1;strokeColor=none;fillColor=none;align=center;verticalAlign=middle;whiteSpace=wrap;rounded=0;" vertex="1" parent="1">
          <mxGeometry x="87.5" y="850" width="40" height="20" as="geometry" />
        </mxCell>
        <mxCell id="FeKZphnsFgbxzVcXP9qo-247" value="conv_img" style="text;html=1;strokeColor=none;fillColor=none;align=center;verticalAlign=middle;whiteSpace=wrap;rounded=0;" vertex="1" parent="1">
          <mxGeometry x="187.5" y="865" width="40" height="20" as="geometry" />
        </mxCell>
        <mxCell id="FeKZphnsFgbxzVcXP9qo-248" value="" style="shape=flexArrow;endArrow=classic;html=1;exitX=1;exitY=0.75;exitDx=0;exitDy=0;width=18;endSize=5.75;" edge="1" parent="1" source="FeKZphnsFgbxzVcXP9qo-228">
          <mxGeometry width="50" height="50" relative="1" as="geometry">
            <mxPoint x="267.5" y="895" as="sourcePoint" />
            <mxPoint x="430" y="1050" as="targetPoint" />
            <Array as="points">
              <mxPoint x="310" y="878" />
              <mxPoint x="310" y="1050" />
            </Array>
          </mxGeometry>
        </mxCell>
        <mxCell id="FeKZphnsFgbxzVcXP9qo-249" value="" style="endArrow=classic;html=1;entryX=0.25;entryY=0;entryDx=0;entryDy=0;" edge="1" parent="1" target="FeKZphnsFgbxzVcXP9qo-228">
          <mxGeometry width="50" height="50" relative="1" as="geometry">
            <mxPoint x="125.5" y="675" as="sourcePoint" />
            <mxPoint x="137.5" y="665" as="targetPoint" />
          </mxGeometry>
        </mxCell>
        <mxCell id="FeKZphnsFgbxzVcXP9qo-250" value="end" style="text;html=1;strokeColor=none;fillColor=none;align=center;verticalAlign=middle;whiteSpace=wrap;rounded=0;" vertex="1" parent="1">
          <mxGeometry x="200" y="790" width="37.5" height="25" as="geometry" />
        </mxCell>
        <mxCell id="FeKZphnsFgbxzVcXP9qo-251" value="" style="endArrow=classic;html=1;exitX=0.998;exitY=0.32;exitDx=0;exitDy=0;exitPerimeter=0;" edge="1" parent="1" source="FeKZphnsFgbxzVcXP9qo-157">
          <mxGeometry width="50" height="50" relative="1" as="geometry">
            <mxPoint x="265" y="545" as="sourcePoint" />
            <mxPoint x="320" y="540" as="targetPoint" />
          </mxGeometry>
        </mxCell>
        <mxCell id="FeKZphnsFgbxzVcXP9qo-253" value="" style="endArrow=classic;html=1;exitX=1;exitY=1;exitDx=0;exitDy=0;" edge="1" parent="1" source="FeKZphnsFgbxzVcXP9qo-150">
          <mxGeometry width="50" height="50" relative="1" as="geometry">
            <mxPoint x="480" y="170" as="sourcePoint" />
            <mxPoint x="330" y="175" as="targetPoint" />
          </mxGeometry>
        </mxCell>
        <mxCell id="FeKZphnsFgbxzVcXP9qo-254" value="" style="endArrow=classic;html=1;entryX=0.75;entryY=0;entryDx=0;entryDy=0;" edge="1" parent="1" target="FeKZphnsFgbxzVcXP9qo-5">
          <mxGeometry width="50" height="50" relative="1" as="geometry">
            <mxPoint x="643" y="280" as="sourcePoint" />
            <mxPoint x="670" y="220" as="targetPoint" />
          </mxGeometry>
        </mxCell>
        <mxCell id="FeKZphnsFgbxzVcXP9qo-255" value="strat_avg" style="text;html=1;strokeColor=none;fillColor=none;align=center;verticalAlign=middle;whiteSpace=wrap;rounded=0;" vertex="1" parent="1">
          <mxGeometry x="640" y="280" width="60" height="30" as="geometry" />
        </mxCell>
        <mxCell id="FeKZphnsFgbxzVcXP9qo-256" value="" style="shape=flexArrow;endArrow=classic;html=1;entryX=0;entryY=0.5;entryDx=0;entryDy=0;width=43;endSize=7.67;" edge="1" parent="1" target="FeKZphnsFgbxzVcXP9qo-5">
          <mxGeometry width="50" height="50" relative="1" as="geometry">
            <mxPoint x="370" y="405" as="sourcePoint" />
            <mxPoint x="440" y="370" as="targetPoint" />
          </mxGeometry>
        </mxCell>
        <mxCell id="FeKZphnsFgbxzVcXP9qo-257" value="&lt;h1&gt;&lt;span style=&quot;font-weight: normal&quot;&gt;&lt;font style=&quot;font-size: 12px&quot;&gt;convoluted_img&amp;nbsp;&lt;/font&gt;&lt;/span&gt;&lt;span style=&quot;font-weight: normal&quot;&gt;&lt;font style=&quot;font-size: 12px&quot;&gt;(9*16*2-1 to 0)&amp;nbsp;&lt;/font&gt;&lt;/span&gt;&lt;/h1&gt;" style="text;html=1;strokeColor=none;fillColor=none;align=left;verticalAlign=middle;whiteSpace=wrap;rounded=0;" vertex="1" parent="1">
          <mxGeometry x="340" y="350" width="180" height="20" as="geometry" />
        </mxCell>
        <mxCell id="FeKZphnsFgbxzVcXP9qo-261" value="CLK" style="text;html=1;strokeColor=none;fillColor=none;align=center;verticalAlign=middle;whiteSpace=wrap;rounded=0;" vertex="1" parent="1">
          <mxGeometry x="480" y="440" width="40" height="20" as="geometry" />
        </mxCell>
        <mxCell id="FeKZphnsFgbxzVcXP9qo-262" value="" style="endArrow=classic;html=1;entryX=0.002;entryY=0.903;entryDx=0;entryDy=0;entryPerimeter=0;" edge="1" parent="1" target="FeKZphnsFgbxzVcXP9qo-5">
          <mxGeometry width="50" height="50" relative="1" as="geometry">
            <mxPoint x="420" y="465" as="sourcePoint" />
            <mxPoint x="500" y="470" as="targetPoint" />
          </mxGeometry>
        </mxCell>
        <mxCell id="FeKZphnsFgbxzVcXP9qo-264" value="CLK" style="text;html=1;strokeColor=none;fillColor=none;align=center;verticalAlign=middle;whiteSpace=wrap;rounded=0;" vertex="1" parent="1">
          <mxGeometry x="530" y="455" width="40" height="20" as="geometry" />
        </mxCell>
        <mxCell id="FeKZphnsFgbxzVcXP9qo-265" value="arr&lt;br&gt;of&lt;br&gt;imgs" style="text;html=1;strokeColor=none;fillColor=none;align=center;verticalAlign=middle;whiteSpace=wrap;rounded=0;" vertex="1" parent="1">
          <mxGeometry x="535" y="385" width="30" height="40" as="geometry" />
        </mxCell>
        <mxCell id="FeKZphnsFgbxzVcXP9qo-266" value="average_img" style="text;html=1;strokeColor=none;fillColor=none;align=center;verticalAlign=middle;whiteSpace=wrap;rounded=0;" vertex="1" parent="1">
          <mxGeometry x="620" y="430" width="40" height="20" as="geometry" />
        </mxCell>
        <mxCell id="FeKZphnsFgbxzVcXP9qo-270" value="" style="endArrow=classic;html=1;" edge="1" parent="1">
          <mxGeometry width="50" height="50" relative="1" as="geometry">
            <mxPoint x="680" y="375" as="sourcePoint" />
            <mxPoint x="750" y="375" as="targetPoint" />
          </mxGeometry>
        </mxCell>
        <mxCell id="FeKZphnsFgbxzVcXP9qo-271" value="end_conv" style="text;html=1;strokeColor=none;fillColor=none;align=left;verticalAlign=middle;whiteSpace=wrap;rounded=0;" vertex="1" parent="1">
          <mxGeometry x="690" y="350" width="40" height="20" as="geometry" />
        </mxCell>
        <mxCell id="FeKZphnsFgbxzVcXP9qo-272" value="B1" style="text;html=1;strokeColor=none;fillColor=none;align=center;verticalAlign=middle;whiteSpace=wrap;rounded=0;" vertex="1" parent="1">
          <mxGeometry x="365" y="385" width="40" height="20" as="geometry" />
        </mxCell>
        <mxCell id="FeKZphnsFgbxzVcXP9qo-273" value="B2" style="text;html=1;align=center;verticalAlign=middle;resizable=0;points=[];autosize=1;strokeColor=none;" vertex="1" parent="1">
          <mxGeometry x="367.5" y="405" width="30" height="20" as="geometry" />
        </mxCell>
        <mxCell id="FeKZphnsFgbxzVcXP9qo-274" value="" style="endArrow=classic;html=1;exitX=1;exitY=0.75;exitDx=0;exitDy=0;" edge="1" parent="1" source="FeKZphnsFgbxzVcXP9qo-250">
          <mxGeometry width="50" height="50" relative="1" as="geometry">
            <mxPoint x="310" y="860" as="sourcePoint" />
            <mxPoint x="360" y="810" as="targetPoint" />
          </mxGeometry>
        </mxCell>
        <mxCell id="FeKZphnsFgbxzVcXP9qo-275" value="&lt;span style=&quot;font-size: 14px&quot;&gt;conv_avg&lt;/span&gt;" style="whiteSpace=wrap;html=1;aspect=fixed;" vertex="1" parent="1">
          <mxGeometry x="587.5" y="985" width="150" height="150" as="geometry" />
        </mxCell>
        <mxCell id="FeKZphnsFgbxzVcXP9qo-277" value="" style="endArrow=classic;html=1;entryX=0.318;entryY=0.003;entryDx=0;entryDy=0;entryPerimeter=0;" edge="1" parent="1" target="FeKZphnsFgbxzVcXP9qo-275">
          <mxGeometry width="50" height="50" relative="1" as="geometry">
            <mxPoint x="635.5" y="935" as="sourcePoint" />
            <mxPoint x="647.5" y="900" as="targetPoint" />
          </mxGeometry>
        </mxCell>
        <mxCell id="FeKZphnsFgbxzVcXP9qo-278" value="&lt;font style=&quot;font-size: 14px&quot;&gt;rst&lt;/font&gt;" style="text;html=1;strokeColor=none;fillColor=none;align=center;verticalAlign=middle;whiteSpace=wrap;rounded=0;" vertex="1" parent="1">
          <mxGeometry x="600" y="940" width="50" height="20" as="geometry" />
        </mxCell>
        <mxCell id="FeKZphnsFgbxzVcXP9qo-279" value="enable" style="text;html=1;strokeColor=none;fillColor=none;align=center;verticalAlign=middle;whiteSpace=wrap;rounded=0;" vertex="1" parent="1">
          <mxGeometry x="687.5" y="990" width="40" height="20" as="geometry" />
        </mxCell>
        <mxCell id="FeKZphnsFgbxzVcXP9qo-280" value="Rest" style="text;html=1;strokeColor=none;fillColor=none;align=center;verticalAlign=middle;whiteSpace=wrap;rounded=0;" vertex="1" parent="1">
          <mxGeometry x="617.5" y="990" width="40" height="20" as="geometry" />
        </mxCell>
        <mxCell id="FeKZphnsFgbxzVcXP9qo-281" value="" style="shape=flexArrow;endArrow=classic;html=1;" edge="1" parent="1">
          <mxGeometry width="50" height="50" relative="1" as="geometry">
            <mxPoint x="737.5" y="1095" as="sourcePoint" />
            <mxPoint x="877.5" y="1095" as="targetPoint" />
          </mxGeometry>
        </mxCell>
        <mxCell id="FeKZphnsFgbxzVcXP9qo-282" value="" style="endArrow=classic;html=1;entryX=0.75;entryY=0;entryDx=0;entryDy=0;" edge="1" parent="1" target="FeKZphnsFgbxzVcXP9qo-275">
          <mxGeometry width="50" height="50" relative="1" as="geometry">
            <mxPoint x="700.5" y="935" as="sourcePoint" />
            <mxPoint x="727.5" y="875" as="targetPoint" />
          </mxGeometry>
        </mxCell>
        <mxCell id="FeKZphnsFgbxzVcXP9qo-283" value="strat_avg" style="text;html=1;strokeColor=none;fillColor=none;align=center;verticalAlign=middle;whiteSpace=wrap;rounded=0;" vertex="1" parent="1">
          <mxGeometry x="697.5" y="935" width="60" height="30" as="geometry" />
        </mxCell>
        <mxCell id="FeKZphnsFgbxzVcXP9qo-284" value="" style="shape=flexArrow;endArrow=classic;html=1;entryX=0;entryY=0.5;entryDx=0;entryDy=0;width=43;endSize=7.67;" edge="1" parent="1" target="FeKZphnsFgbxzVcXP9qo-275">
          <mxGeometry width="50" height="50" relative="1" as="geometry">
            <mxPoint x="427.5" y="1060" as="sourcePoint" />
            <mxPoint x="497.5" y="1025" as="targetPoint" />
          </mxGeometry>
        </mxCell>
        <mxCell id="FeKZphnsFgbxzVcXP9qo-285" value="&lt;h1&gt;&lt;span style=&quot;font-weight: normal&quot;&gt;&lt;font style=&quot;font-size: 12px&quot;&gt;convoluted_img&amp;nbsp;&lt;/font&gt;&lt;/span&gt;&lt;span style=&quot;font-weight: normal&quot;&gt;&lt;font style=&quot;font-size: 12px&quot;&gt;(9*16*2-1 to 0)&amp;nbsp;&lt;/font&gt;&lt;/span&gt;&lt;/h1&gt;" style="text;html=1;strokeColor=none;fillColor=none;align=left;verticalAlign=middle;whiteSpace=wrap;rounded=0;" vertex="1" parent="1">
          <mxGeometry x="397.5" y="1005" width="180" height="20" as="geometry" />
        </mxCell>
        <mxCell id="FeKZphnsFgbxzVcXP9qo-286" value="CLK" style="text;html=1;strokeColor=none;fillColor=none;align=center;verticalAlign=middle;whiteSpace=wrap;rounded=0;" vertex="1" parent="1">
          <mxGeometry x="537.5" y="1095" width="40" height="20" as="geometry" />
        </mxCell>
        <mxCell id="FeKZphnsFgbxzVcXP9qo-287" value="" style="endArrow=classic;html=1;entryX=0.002;entryY=0.903;entryDx=0;entryDy=0;entryPerimeter=0;" edge="1" parent="1" target="FeKZphnsFgbxzVcXP9qo-275">
          <mxGeometry width="50" height="50" relative="1" as="geometry">
            <mxPoint x="477.5" y="1120" as="sourcePoint" />
            <mxPoint x="557.5" y="1125" as="targetPoint" />
          </mxGeometry>
        </mxCell>
        <mxCell id="FeKZphnsFgbxzVcXP9qo-288" value="CLK" style="text;html=1;strokeColor=none;fillColor=none;align=center;verticalAlign=middle;whiteSpace=wrap;rounded=0;" vertex="1" parent="1">
          <mxGeometry x="587.5" y="1110" width="40" height="20" as="geometry" />
        </mxCell>
        <mxCell id="FeKZphnsFgbxzVcXP9qo-289" value="arr&lt;br&gt;of&lt;br&gt;imgs" style="text;html=1;strokeColor=none;fillColor=none;align=center;verticalAlign=middle;whiteSpace=wrap;rounded=0;" vertex="1" parent="1">
          <mxGeometry x="592.5" y="1040" width="30" height="40" as="geometry" />
        </mxCell>
        <mxCell id="FeKZphnsFgbxzVcXP9qo-290" value="average_img" style="text;html=1;strokeColor=none;fillColor=none;align=center;verticalAlign=middle;whiteSpace=wrap;rounded=0;" vertex="1" parent="1">
          <mxGeometry x="677.5" y="1085" width="40" height="20" as="geometry" />
        </mxCell>
        <mxCell id="FeKZphnsFgbxzVcXP9qo-291" value="" style="endArrow=classic;html=1;" edge="1" parent="1">
          <mxGeometry width="50" height="50" relative="1" as="geometry">
            <mxPoint x="737.5" y="1030" as="sourcePoint" />
            <mxPoint x="807.5" y="1030" as="targetPoint" />
          </mxGeometry>
        </mxCell>
        <mxCell id="FeKZphnsFgbxzVcXP9qo-292" value="end_conv" style="text;html=1;strokeColor=none;fillColor=none;align=left;verticalAlign=middle;whiteSpace=wrap;rounded=0;" vertex="1" parent="1">
          <mxGeometry x="747.5" y="1005" width="40" height="20" as="geometry" />
        </mxCell>
        <mxCell id="FeKZphnsFgbxzVcXP9qo-300" value="" style="endArrow=classic;html=1;exitX=0;exitY=1;exitDx=0;exitDy=0;" edge="1" parent="1" source="FeKZphnsFgbxzVcXP9qo-207">
          <mxGeometry width="50" height="50" relative="1" as="geometry">
            <mxPoint x="250" y="1150" as="sourcePoint" />
            <mxPoint x="290" y="1150" as="targetPoint" />
          </mxGeometry>
        </mxCell>
      </root>
    </mxGraphModel>
  </diagram>
</mxfile>
